<svg xmlns="http://www.w3.org/2000/svg" width="120" height="34" style=""><rect id="backgroundrect" width="100%" height="100%" x="0" y="0" fill="none" stroke="none"/>
 <!-- Generator: Sketch 56 (81588) - https://sketch.com -->

 <title>logos/myAlgo-logo-full</title>
 <desc>Created with Sketch.</desc>
 <g style="">
  <title>background</title>
  <rect fill="none" id="canvas_background" height="402" width="582" y="-1" x="-1"/>
 </g>
 <g style="" class="currentLayer">
  <title>Layer 1</title>
  <rect rx="15.760007858276367" height="31.903682708740234" width="31.520017623901367" y="1" x="3.8888330459594727" fill="#245ec7" id="Rectangle-Copy-2" class="" fill-opacity="1"/>
  <polygon fill="#ffffff" points="25.374890618026257,12.171238899230957 25.214440636336803,11.558270454406738 24.853431038558483,12.171238899230957 22.674002937972546,16.039752960205078 20.821980766952038,19.29556655883789 19.213927559554577,22.13035774230957 18.28840570896864,23.76315689086914 15.667743019759655,23.76315689086914 17.860541634261608,19.894643783569336 18.380845360457897,18.97435188293457 18.09182482212782,17.89227867126465 17.26283960789442,14.718463897705078 16.594302468001842,12.171238899230957 16.433854393661022,11.558270454406738 16.072844795882702,12.171238899230957 13.893416695296764,16.039752960205078 11.700618080794811,19.894643783569336 9.507818512618542,23.76315689086914 6.887156777083874,23.76315689086914 9.079955391585827,19.894643783569336 11.259383492171764,16.039752960205078 13.452182106673717,12.171238899230957 15.591498665511608,8.398077011108398 15.644981674849987,8.3163480758667 17.931374840438366,8.3163480758667 18.038340859115124,8.724993705749512 18.867326073348522,11.885187149047852 18.94755106419325,12.171238899230957 19.69631128758192,15.045380592346191 19.9637253805995,16.039752960205078 19.98797159641981,16.13172721862793 20.039969734847546,16.039752960205078 22.23277025669813,12.171238899230957 24.37208490818739,8.398077011108398 24.425568871200085,8.3163480758667 26.71196299046278,8.3163480758667 26.818927101790905,8.724993705749512 31.21642427891493,23.76315689086914 28.595763497054577,23.76315689086914 " id="logo"/>
  <path fill-rule="nonzero" fill="#245ec7" id="MyAlgo" d="m45.176,24.448l2.976,-16.128c0.048,-0.192 0.24,-0.36 0.432,-0.36l0.384,0c0.144,0 0.36,0.12 0.408,0.264l5.016,12.264l0.096,0l4.992,-12.264c0.048,-0.144 0.24,-0.264 0.408,-0.264l0.384,0c0.192,0 0.384,0.168 0.432,0.36l2.952,16.128c0.072,0.336 -0.096,0.552 -0.432,0.552l-1.56,0c-0.216,0 -0.408,-0.168 -0.456,-0.336l-1.776,-10.728l-0.072,0l-4.32,11.04c-0.048,0.144 -0.192,0.264 -0.408,0.264l-0.432,0c-0.192,0 -0.36,-0.12 -0.408,-0.264l-4.344,-11.04l-0.096,0l-1.728,10.728c-0.024,0.168 -0.24,0.336 -0.432,0.336l-1.56,0c-0.336,0 -0.504,-0.216 -0.456,-0.552zm23.0482,0.216l-4.176,-8.64c-0.144,-0.312 0.048,-0.624 0.408,-0.624l1.584,0c0.144,0 0.336,0.12 0.408,0.264l2.976,6.384l0.024,0l2.88,-6.384c0.096,-0.216 0.288,-0.264 0.504,-0.264l1.368,0c0.384,0 0.576,0.312 0.408,0.624l-7.344,15.888c-0.072,0.144 -0.216,0.288 -0.408,0.288l-1.44,0c-0.36,0 -0.576,-0.312 -0.408,-0.648l3.216,-6.888zm10.79639,0.336c-0.36,0 -0.552,-0.312 -0.408,-0.624l7.368,-16.152c0.072,-0.144 0.288,-0.264 0.408,-0.264l0.24,0c0.12,0 0.336,0.12 0.408,0.264l7.32,16.152c0.144,0.312 -0.048,0.624 -0.408,0.624l-1.512,0c-0.288,0 -0.456,-0.144 -0.552,-0.36l-1.488,-3.288l-7.848,0c-0.48,1.104 -0.984,2.184 -1.464,3.288c-0.072,0.168 -0.264,0.36 -0.552,0.36l-1.512,0zm4.464,-5.712l6,0l-2.952,-6.576l-0.12,0l-2.928,6.576zm11.84019,5.256l0,-15.888c0,-0.24 0.216,-0.456 0.456,-0.456l1.368,0c0.24,0 0.456,0.216 0.456,0.456l0,15.888c0,0.24 -0.216,0.456 -0.456,0.456l-1.368,0c-0.24,0 -0.456,-0.216 -0.456,-0.456zm3.8722,-0.12c0,-1.848 1.704,-2.736 1.704,-2.736c0,0 -0.744,-0.888 -0.744,-2.328c0,-2.232 1.67999,-4.2 4.128,-4.2l4.2,0c0.264,0 0.45599,0.192 0.45599,0.456l0,0.6c0,0.168 -0.09599,0.384 -0.264,0.408l-1.31999,0.36c0,0 1.032,0.768 1.032,2.568c0,2.04 -1.58401,3.912 -4.08,3.912c-1.224,0 -1.896,-0.384 -2.08801,-0.384c-0.16799,0 -0.98399,0.408 -0.98399,1.176c0,0.552 0.432,0.984 1.152,0.984l3.26399,0c2.08801,0 3.768,1.128 3.768,3.216c0,2.112 -1.92,3.984 -5.11199,3.984c-3.384,0 -4.752,-1.728 -4.752,-3.288c0,-1.44 1.17599,-2.112 1.416,-2.256l0,-0.072c-0.504,-0.144 -1.776,-0.792 -1.776,-2.4zm5.136,-2.808c1.19999,0 2.01599,-0.912 2.01599,-2.208c0,-1.296 -0.816,-2.208 -2.01599,-2.208c-1.224,0 -2.11201,0.912 -2.11201,2.208c0,1.296 0.88801,2.208 2.11201,2.208zm-2.54401,7.152c0,0.984 1.03201,1.704 2.49601,1.704c1.464,0 2.736,-0.744 2.736,-1.896c0,-0.384 -0.24001,-1.368 -1.80001,-1.368c-0.696,0 -1.416,0 -2.11199,0.048c-0.14401,0.048 -1.32001,0.432 -1.32001,1.512zm8.1202,-8.592c0,-2.712 2.16,-5.016 4.848,-5.016c2.688,0 4.848,2.304 4.848,5.016c0,2.76 -2.16,5.064 -4.848,5.064c-2.688,0 -4.848,-2.304 -4.848,-5.064zm2.136,0c0,1.656 1.2,3 2.712,3c1.512,0 2.712,-1.344 2.712,-3c0,-1.608 -1.2,-2.928 -2.712,-2.928c-1.512,0 -2.712,1.32 -2.712,2.928z" class="" fill-opacity="1"/>
 </g>
</svg>